<svg xmlns="http://www.w3.org/2000/svg" viewBox="0 0 57.11 55.86"><defs><style>.cls-1,.cls-11,.cls-13,.cls-14,.cls-17,.cls-19,.cls-3,.cls-8{fill:none;}.cls-1,.cls-13,.cls-14,.cls-17,.cls-2,.cls-3{stroke:#8e8e8e;}.cls-1,.cls-10,.cls-18,.cls-2,.cls-4,.cls-5,.cls-8{stroke-miterlimit:10;}.cls-1,.cls-11,.cls-13,.cls-14,.cls-2,.cls-3{stroke-width:0.16px;}.cls-10,.cls-18,.cls-2,.cls-4,.cls-5,.cls-7{fill:#fff;}.cls-11,.cls-13,.cls-14,.cls-17,.cls-19,.cls-3{stroke-linecap:round;stroke-linejoin:round;}.cls-3{stroke-dasharray:0.48;}.cls-10,.cls-18,.cls-4,.cls-5{stroke:#7387c3;}.cls-4{stroke-width:0.75px;}.cls-5{stroke-width:0.16px;}.cls-6{fill:#7387c3;}.cls-19,.cls-8{stroke:#fff;}.cls-8{stroke-width:0.24px;}.cls-9{fill:#045384;}.cls-10{stroke-width:0.25px;}.cls-11{stroke:#333538;}.cls-12,.cls-16{fill:#8e8e8e;}.cls-14{stroke-dasharray:0.51 0.51;}.cls-15,.cls-16{opacity:0.52;}.cls-17,.cls-19{stroke-width:0.32px;}</style></defs><title>Element 3</title><g id="Ebene_2" data-name="Ebene 2"><g id="Layer_1" data-name="Layer 1"><path class="cls-1" d="M42.22,49.56a25.32,25.32,0,0,1-26.37.21"/><circle class="cls-2" cx="28.78" cy="53.37" r="2.41"/><path class="cls-1" d="M50.52,15a25.33,25.33,0,0,1,.77,24.76"/><circle class="cls-2" cx="53.19" cy="26.85" r="3.85" transform="translate(14.94 72.54) rotate(-76.85)"/><path class="cls-1" d="M14.65,7.16a25.29,25.29,0,0,1,29.21.56"/><circle class="cls-2" cx="28.75" cy="2.79" r="2.71"/><path class="cls-1" d="M6.46,39.83a25.31,25.31,0,0,1,1.11-25.4"/><circle class="cls-2" cx="3.95" cy="26.8" r="3.87"/><circle class="cls-3" cx="47.88" cy="10.86" r="4.45"/><circle class="cls-4" cx="10.44" cy="10.03" r="4.1"/><path class="cls-5" d="M12.61,9.4a2.18,2.18,0,0,1-1.44,2,2.14,2.14,0,0,1-1.47,0,2.18,2.18,0,1,1,2.91-2Z"/><path class="cls-5" d="M11.17,11.45v.88a.51.51,0,0,1-.51.51h-.45a.51.51,0,0,1-.51-.51v-.88a2.14,2.14,0,0,0,1.47,0Z"/><path class="cls-5" d="M10.63,8.29c-.43,0-.49.62-.1.62-.4,0-.35.68,0,.68-.31,0-.32.63,0,.63v1.36"/><circle class="cls-4" cx="47.24" cy="45.21" r="4.09"/><path class="cls-6" d="M49,45.09h-.52a1.41,1.41,0,0,0-1-1v-.47a.65.65,0,0,0,.3-.39l.27,0c.38,0,.69-.13.69-.28s-.31-.27-.69-.27a1.69,1.69,0,0,0-.33,0,.66.66,0,0,0-1.13,0,1.79,1.79,0,0,0-.34,0c-.38,0-.69.12-.69.27s.31.28.69.28l.27,0a.73.73,0,0,0,.3.39v.47a1.42,1.42,0,0,0-1,1H45a.51.51,0,0,0-.51.51v.11a.51.51,0,0,0,.51.51h.94a1.4,1.4,0,0,0,1.23.72,1.43,1.43,0,0,0,1.24-.72h.14a.27.27,0,0,1,.28.28v.14a.44.44,0,0,0,.44.43h.25a.44.44,0,0,0,.44-.43V46A.91.91,0,0,0,49,45.09Z"/><circle class="cls-6" cx="10.47" cy="45.45" r="4.65"/><path class="cls-7" d="M8.39,47.46H8a.18.18,0,0,1-.17-.18V43.82a.19.19,0,0,1,0-.13l.21-.2a.16.16,0,0,1,.24,0l.21.2a.19.19,0,0,1,.05.13v3.46A.18.18,0,0,1,8.39,47.46Z"/><path class="cls-7" d="M9.83,47.46H9.42a.18.18,0,0,1-.18-.18V43.82a.19.19,0,0,1,0-.13l.21-.2a.18.18,0,0,1,.25,0l.2.2a.16.16,0,0,1,.06.13v3.46A.18.18,0,0,1,9.83,47.46Z"/><path class="cls-7" d="M11.27,47.46h-.41a.18.18,0,0,1-.18-.18V43.82a.16.16,0,0,1,.06-.13l.2-.2a.18.18,0,0,1,.25,0l.21.2a.19.19,0,0,1,0,.13v3.46A.18.18,0,0,1,11.27,47.46Z"/><path class="cls-7" d="M12.72,47.46H12.3a.18.18,0,0,1-.17-.18V43.82a.19.19,0,0,1,0-.13l.21-.2a.16.16,0,0,1,.24,0l.21.2a.19.19,0,0,1,.05.13v3.46A.17.17,0,0,1,12.72,47.46Z"/><rect class="cls-7" x="7.44" y="44.52" width="5.82" height="0.36" rx="0.17"/><rect class="cls-7" x="7.44" y="46.27" width="5.82" height="0.36" rx="0.17"/><path class="cls-6" d="M28.75,1c-2.41,0-.56,3.5,0,3.5S31.16,1,28.75,1Zm0,1.75a.61.61,0,1,1,.61-.61A.61.61,0,0,1,28.75,2.79Z"/><circle class="cls-6" cx="47.88" cy="10.86" r="3.55" transform="translate(23.54 53.5) rotate(-73.06)"/><path class="cls-7" d="M49.18,10a1.3,1.3,0,1,0-2.6,0,.44.44,0,0,0-.32.42v1.9a.43.43,0,0,0,.43.43h2.38a.43.43,0,0,0,.43-.43v-1.9A.44.44,0,0,0,49.18,10Zm-1.3-1a.94.94,0,0,1,.66.27,1,1,0,0,1,.3.69H46.92A1,1,0,0,1,47.88,9Zm.19,2.38V12h-.38v-.66a.35.35,0,0,1-.18-.31.37.37,0,1,1,.74,0A.35.35,0,0,1,48.07,11.38Z"/><circle class="cls-6" cx="3.95" cy="26.8" r="3"/><path class="cls-8" d="M5.84,26.8A1.89,1.89,0,0,1,4,28.69a1.86,1.86,0,0,1-1.26-.48,1.89,1.89,0,0,1-.64-1.41A1.91,1.91,0,0,1,4,24.9a1.87,1.87,0,0,1,1.39.61A1.9,1.9,0,0,1,5.84,26.8Z"/><path class="cls-8" d="M5,26.8a2.7,2.7,0,0,1-.36,1.41.88.88,0,0,1-.71.48.88.88,0,0,1-.71-.48,2.7,2.7,0,0,1-.36-1.41,2.79,2.79,0,0,1,.29-1.29A.94.94,0,0,1,4,24.9a.94.94,0,0,1,.78.61A2.79,2.79,0,0,1,5,26.8Z"/><path class="cls-8" d="M5.21,28.21A1.9,1.9,0,0,1,4,28.69a1.86,1.86,0,0,1-1.26-.48A2.14,2.14,0,0,1,4,27.82,2.19,2.19,0,0,1,5.21,28.21Z"/><path class="cls-8" d="M5.34,25.51A2.13,2.13,0,0,1,4,26a2.11,2.11,0,0,1-1.39-.49,1.89,1.89,0,0,1,2.78,0Z"/><line class="cls-8" x1="2.05" y1="26.8" x2="5.84" y2="26.8"/><line class="cls-8" x1="3.95" y1="24.9" x2="3.95" y2="28.69"/><path class="cls-9" d="M29,53.64V52.28a.27.27,0,0,0-.27-.27h0a.27.27,0,0,0-.27.27v1.36a.77.77,0,0,0-.48.88.75.75,0,0,0,.58.58A.76.76,0,0,0,29,53.64Z"/><path class="cls-9" d="M28.16,52.25h-.4a0,0,0,0,1-.05,0,.06.06,0,0,1,.05-.06h.4a.06.06,0,0,1,.06.06A.06.06,0,0,1,28.16,52.25Zm.06.54a.06.06,0,0,0-.06-.06h-.4a.06.06,0,0,0-.05.06,0,0,0,0,0,.05.05h.4A.06.06,0,0,0,28.22,52.79Zm0,.59a.06.06,0,0,0-.06-.06h-.4a.06.06,0,0,0-.05.06,0,0,0,0,0,.05,0h.4A.06.06,0,0,0,28.22,53.38Z"/><path class="cls-9" d="M29.9,52.44a.3.3,0,0,1-.3.29.3.3,0,0,1,0-.59A.3.3,0,0,1,29.9,52.44Z"/><circle class="cls-6" cx="53.19" cy="26.84" r="2.66"/><path class="cls-10" d="M13,45.22A1.2,1.2,0,1,1,14.18,44,1.19,1.19,0,0,1,13,45.22Z"/><polyline class="cls-11" points="12.99 43.22 12.99 44.02 13.68 44.02"/><path class="cls-1" d="M6.46,39.83a6.91,6.91,0,0,1,10.91,5.62,6.86,6.86,0,0,1-1.52,4.32"/><path class="cls-1" d="M42.16,49.86a6.9,6.9,0,0,1,9.36-10.07"/><polyline class="cls-1" points="13.22 14.4 13.22 19.22 22.3 19.22"/><circle class="cls-12" cx="13.26" cy="14.51" r="0.41"/><path class="cls-12" d="M26,3.24a.31.31,0,0,1-.3-.3.3.3,0,0,1,.3-.3.29.29,0,0,1,.3.3A.3.3,0,0,1,26,3.24Z"/><path class="cls-12" d="M14.75,7.37a.3.3,0,1,1,0-.59.3.3,0,1,1,0,.59Z"/><path class="cls-12" d="M7.49,14.81a.3.3,0,0,1-.3-.3.31.31,0,0,1,.3-.3.3.3,0,0,1,.3.3A.29.29,0,0,1,7.49,14.81Z"/><path class="cls-12" d="M4.15,23.23a.31.31,0,0,1-.3-.3.3.3,0,0,1,.3-.3.29.29,0,0,1,.3.3A.3.3,0,0,1,4.15,23.23Z"/><path class="cls-12" d="M3.74,31a.29.29,0,0,1-.3-.3.3.3,0,0,1,.3-.3.31.31,0,0,1,.3.3A.3.3,0,0,1,3.74,31Z"/><path class="cls-12" d="M6.53,40a.31.31,0,0,1-.3-.3.3.3,0,0,1,.3-.3.29.29,0,0,1,.3.3A.3.3,0,0,1,6.53,40Z"/><path class="cls-12" d="M15.83,50a.3.3,0,0,1-.3-.3.29.29,0,0,1,.3-.3.3.3,0,0,1,.3.3A.31.31,0,0,1,15.83,50Z"/><path class="cls-12" d="M31.46,3.09a.3.3,0,0,1-.3-.3.31.31,0,0,1,.3-.3.3.3,0,0,1,.3.3A.29.29,0,0,1,31.46,3.09Z"/><path class="cls-12" d="M43.79,7.86a.3.3,0,0,1,0-.6.3.3,0,0,1,0,.6Z"/><path class="cls-12" d="M50.6,15.56a.3.3,0,0,1-.3-.3.31.31,0,0,1,.3-.3.3.3,0,0,1,.3.3A.29.29,0,0,1,50.6,15.56Z"/><path class="cls-12" d="M53.62,23.3a.3.3,0,1,1,0-.59.3.3,0,1,1,0,.59Z"/><path class="cls-12" d="M54,31a.3.3,0,1,1,0-.59A.3.3,0,1,1,54,31Z"/><path class="cls-12" d="M51.38,40a.3.3,0,0,1-.3-.3.31.31,0,0,1,.3-.3.3.3,0,0,1,.3.3A.29.29,0,0,1,51.38,40Z"/><path class="cls-12" d="M47.67,38.25a.41.41,0,0,1-.48.33.42.42,0,0,1-.33-.48.41.41,0,0,1,.81.15Z"/><path class="cls-12" d="M42,50a.29.29,0,0,1-.3-.3.3.3,0,1,1,.59,0A.29.29,0,0,1,42,50Z"/><path class="cls-12" d="M31.25,53.6a.3.3,0,0,1-.3-.3.31.31,0,0,1,.3-.3.3.3,0,0,1,.3.3A.29.29,0,0,1,31.25,53.6Z"/><path class="cls-12" d="M26.41,53.56a.3.3,0,0,1-.3-.3.29.29,0,0,1,.3-.3.3.3,0,0,1,.3.3A.31.31,0,0,1,26.41,53.56Z"/><path class="cls-3" d="M14.82,49a5.62,5.62,0,1,1-4.35-9.16"/><path class="cls-12" d="M10.55,40.09a.3.3,0,0,1-.3-.3.31.31,0,0,1,.3-.3.3.3,0,0,1,.3.3A.29.29,0,0,1,10.55,40.09Z"/><polygon class="cls-12" points="14.46 48.86 15.08 49.28 15.16 48.49 14.46 48.86"/><path class="cls-3" d="M50.35,49.51a5.31,5.31,0,0,1-7.78-1.77"/><path class="cls-12" d="M50.13,49.86a.3.3,0,1,1,0-.6.3.3,0,1,1,0,.6Z"/><polygon class="cls-12" points="42.35 48.08 43.03 47.75 42.37 47.29 42.35 48.08"/><path class="cls-3" d="M42.16,43.63a5.32,5.32,0,0,1,10.39,1.58"/><path class="cls-12" d="M42.22,43.84a.3.3,0,1,1,.3-.3A.29.29,0,0,1,42.22,43.84Z"/><polygon class="cls-12" points="52.92 44.85 52.17 44.87 52.58 45.56 52.92 44.85"/><path class="cls-1" d="M13.47,14.35a5.31,5.31,0,0,1-7.78-1.77"/><polygon class="cls-12" points="5.47 12.92 6.15 12.59 5.49 12.13 5.47 12.92"/><path class="cls-3" d="M5.28,8.47a5.32,5.32,0,0,1,10.39,1.58"/><path class="cls-12" d="M5.34,8.68a.3.3,0,0,1,0-.59.3.3,0,1,1,0,.59Z"/><polygon class="cls-12" points="16.04 9.69 15.29 9.71 15.7 10.4 16.04 9.69"/><polyline class="cls-1" points="13.56 39.3 13.53 34.55 22.57 34.55"/><polyline class="cls-1" points="31.97 16.95 31.97 10.86 42.04 10.86"/><polyline class="cls-1" points="36.3 33.47 47.26 33.47 47.26 38.31"/><line class="cls-1" x1="28.75" y1="5.7" x2="28.76" y2="16.81"/><line class="cls-1" x1="7.86" y1="26.87" x2="22" y2="26.87"/><line class="cls-1" x1="36.3" y1="26.7" x2="49.34" y2="26.7"/><line class="cls-1" x1="28.76" y1="38.31" x2="28.76" y2="50.97"/><circle class="cls-12" cx="13.63" cy="34.7" r="0.41"/><path class="cls-12" d="M14,39.19a.41.41,0,1,1-.41-.41A.41.41,0,0,1,14,39.19Z"/><path class="cls-12" d="M8.26,26.82a.41.41,0,1,1-.41-.42A.41.41,0,0,1,8.26,26.82Z"/><path class="cls-12" d="M29.18,5.61a.41.41,0,1,1-.41-.42A.41.41,0,0,1,29.18,5.61Z"/><path class="cls-12" d="M32.54,11.06a.41.41,0,1,1-.41-.41A.41.41,0,0,1,32.54,11.06Z"/><circle class="cls-12" cx="42.31" cy="10.84" r="0.41"/><path class="cls-12" d="M49.7,26.66a.42.42,0,1,1-.41-.41A.42.42,0,0,1,49.7,26.66Z"/><path class="cls-1" d="M51.87,14.24a5.27,5.27,0,0,1-8.3-6.48"/><polygon class="cls-12" points="51.53 14.11 52.11 14.51 52.18 13.76 51.53 14.11"/><line class="cls-1" x1="9.68" y1="22.62" x2="20.9" y2="22.62"/><path class="cls-2" d="M9.94,22.43a.41.41,0,1,1-.56-.15A.4.4,0,0,1,9.94,22.43Z"/><polyline class="cls-3" points="19 8.15 22.92 8.15 22.92 15.9"/><line class="cls-3" x1="35.57" y1="17.44" x2="45.07" y2="17.44"/><line class="cls-1" x1="36.97" y1="22.68" x2="47.45" y2="22.68"/><line class="cls-3" x1="36.97" y1="31.14" x2="44.1" y2="31.14"/><line class="cls-1" x1="34.24" y1="40.37" x2="34.24" y2="48.2"/><line class="cls-1" x1="36.34" y1="37.57" x2="42.84" y2="37.57"/><line class="cls-1" x1="21.31" y1="37.71" x2="16.77" y2="37.71"/><line class="cls-3" x1="22.99" y1="39.81" x2="22.99" y2="48.27"/><line class="cls-13" x1="21.38" y1="30.72" x2="21.14" y2="30.72"/><line class="cls-14" x1="20.63" y1="30.72" x2="12.72" y2="30.72"/><line class="cls-13" x1="12.46" y1="30.72" x2="12.22" y2="30.72"/><path class="cls-2" d="M12.44,30.52a.41.41,0,1,1-.71.41.41.41,0,0,1,.71-.41Z"/><path class="cls-2" d="M22.93,48.66a.42.42,0,1,1,.41-.41A.42.42,0,0,1,22.93,48.66Z"/><circle class="cls-2" cx="34.27" cy="48.02" r="0.41"/><path class="cls-2" d="M42.89,38a.41.41,0,1,1,.42-.41A.41.41,0,0,1,42.89,38Z"/><path class="cls-2" d="M44.28,31.53a.41.41,0,1,1,.41-.41A.41.41,0,0,1,44.28,31.53Z"/><circle class="cls-2" cx="16.9" cy="37.74" r="0.41"/><path class="cls-2" d="M47.62,23.14a.42.42,0,0,1-.42-.42.42.42,0,0,1,.83,0A.42.42,0,0,1,47.62,23.14Z"/><circle class="cls-2" cx="45.11" cy="17.44" r="0.41"/><circle class="cls-2" cx="19.09" cy="8.04" r="0.41"/><g class="cls-15"><path class="cls-12" d="M49,19.3a1,1,0,1,1,1-1A1,1,0,0,1,49,19.3Zm0-1.81a.78.78,0,1,0,.78.78A.78.78,0,0,0,49,17.49Z"/><path class="cls-12" d="M49.44,18.35H49a.09.09,0,0,1-.08-.08v-.55a.09.09,0,0,1,.08-.09.08.08,0,0,1,.08.09v.46h.39a.09.09,0,0,1,.09.09A.09.09,0,0,1,49.44,18.35Z"/></g><path class="cls-16" d="M54.88,41.28V41h-.27a.64.64,0,0,0-.1-.24l.19-.19-.22-.22-.18.18a.77.77,0,0,0-.25-.1v-.26h-.31v.26a.55.55,0,0,0-.25.1l-.19-.18-.22.22.19.18a.77.77,0,0,0-.1.25H52.9v.31h.28a.87.87,0,0,0,.1.24l-.2.2.22.22.21-.21a.58.58,0,0,0,.23.09v.3h.31v-.3a.73.73,0,0,0,.22-.09l.21.21.22-.22-.2-.21a.8.8,0,0,0,.1-.23Zm-.92.16a.34.34,0,0,1-.4-.4.32.32,0,0,1,.26-.26.34.34,0,0,1,.4.4A.32.32,0,0,1,54,41.44Z"/><path class="cls-16" d="M9,36.86v-.45H8.62a.85.85,0,0,0-.14-.34l.27-.27-.31-.31-.26.26a1.14,1.14,0,0,0-.36-.15v-.37H7.38v.37a1.19,1.19,0,0,0-.35.15l-.26-.26-.31.31.26.26a1.14,1.14,0,0,0-.13.35H6.2v.45h.4a1.06,1.06,0,0,0,.14.33l-.28.28.31.31.29-.29a1,1,0,0,0,.32.13V38h.44v-.42a1,1,0,0,0,.33-.13l.29.29.31-.31-.29-.29a1,1,0,0,0,.15-.32Zm-1.31.22a.48.48,0,1,1-.19-.94.48.48,0,0,1,.19.94Z"/><path class="cls-16" d="M3.74,21.55v-.27H3.49a.58.58,0,0,0-.08-.22l.17-.17-.2-.19-.16.16A.85.85,0,0,0,3,20.77v-.23H2.72v.23a.85.85,0,0,0-.22.09l-.16-.16-.2.19.17.17a.85.85,0,0,0-.09.22H2v.27h.24a.67.67,0,0,0,.09.21l-.18.18.2.19L2.52,22a.5.5,0,0,0,.2.08v.26H3V22A.7.7,0,0,0,3.2,22l.18.18.2-.19-.18-.18a.67.67,0,0,0,.09-.21Zm-.82.14a.3.3,0,0,1-.36-.35.3.3,0,0,1,.59.12A.28.28,0,0,1,2.92,21.69Z"/><path class="cls-16" d="M35.68,5.61V5.17h-.39a1.05,1.05,0,0,0-.13-.35l.26-.27-.31-.31-.26.26a1.19,1.19,0,0,0-.35-.15V4h-.44v.36a1.14,1.14,0,0,0-.36.15l-.26-.26-.31.31.26.27a1,1,0,0,0-.13.35h-.39v.44h.4a1.22,1.22,0,0,0,.14.33l-.28.29.31.31.29-.29a1.2,1.2,0,0,0,.33.13v.41h.44V6.38a1.3,1.3,0,0,0,.32-.14l.29.3.31-.31-.28-.29a1.22,1.22,0,0,0,.14-.33Zm-1.31.23a.48.48,0,1,1,.38-.38A.49.49,0,0,1,34.37,5.84Z"/><g class="cls-15"><path class="cls-12" d="M54.69,21.92a.23.23,0,0,1-.32,0,.22.22,0,1,1,.32-.31A.23.23,0,0,1,54.69,21.92Z"/><path class="cls-12" d="M54.52,21.36a.08.08,0,0,1,0,0,.06.06,0,0,1,.06-.06.52.52,0,0,1,.46.42.06.06,0,0,1-.05.06s-.06,0-.07,0a.37.37,0,0,0-.34-.31A.05.05,0,0,1,54.52,21.36Z"/><path class="cls-12" d="M54.54,21a.07.07,0,0,1,0-.06s0-.05.07,0a1,1,0,0,1,.72.68.06.06,0,1,1-.11,0,.92.92,0,0,0-.64-.6Z"/><path class="cls-12" d="M54.56,20.7a.06.06,0,0,1,0-.06.05.05,0,0,1,.07,0,1.63,1.63,0,0,1,1,.95.07.07,0,0,1,0,.08.05.05,0,0,1-.07,0,1.51,1.51,0,0,0-.94-.89Z"/></g><g class="cls-15"><path class="cls-12" d="M5.92,14.63a.22.22,0,0,1,.31.06.23.23,0,0,1-.06.32.23.23,0,0,1-.25-.38Z"/><path class="cls-12" d="M6,15.21a.07.07,0,0,1,0,0,.06.06,0,0,1-.07,0,.51.51,0,0,1-.38-.49.05.05,0,0,1,.06-.05.06.06,0,0,1,.06.06.38.38,0,0,0,.28.37Z"/><path class="cls-12" d="M5.91,15.53a0,0,0,0,1,0,.05.05.05,0,0,1-.07,0,1,1,0,0,1-.6-.79.06.06,0,0,1,.12,0,.92.92,0,0,0,.53.71Z"/><path class="cls-12" d="M5.83,15.85a.06.06,0,0,1,0,.06.05.05,0,0,1-.08,0,1.62,1.62,0,0,1-.83-1.11.06.06,0,0,1,0-.07s.07,0,.07,0a1.53,1.53,0,0,0,.78,1Z"/></g><g class="cls-15"><path class="cls-12" d="M24.72,51.72a1,1,0,1,1,1-1A1,1,0,0,1,24.72,51.72Zm0-1.81a.78.78,0,1,0,.78.78A.78.78,0,0,0,24.72,49.91Z"/><path class="cls-12" d="M25.18,50.77h-.47a.09.09,0,0,1-.09-.08v-.55a.08.08,0,0,1,.09-.08.08.08,0,0,1,.08.08v.47h.39a.07.07,0,0,1,.08.08A.08.08,0,0,1,25.18,50.77Z"/></g><g class="cls-15"><path class="cls-12" d="M7.09,16.64v.89a1,1,0,0,0,1.05.89h0a1,1,0,0,0,1-.89v-.89Z"/><rect class="cls-12" x="7.43" y="15.86" width="0.35" height="1.2" rx="0.17"/><rect class="cls-12" x="8.5" y="15.86" width="0.35" height="1.2" rx="0.17"/><path class="cls-17" d="M8.14,18.42v1.33c0,.7,1.38.7,1.38,0V17.82a1.19,1.19,0,0,1,1.19-1.19h.37"/></g><path class="cls-16" d="M33.53,49.68h-.25l.14-.14a.07.07,0,1,0-.1-.1l-.24.24H33l.14-.14a.07.07,0,1,0-.1-.1l-.24.24h-.39l.27-.27H33a.08.08,0,0,0,.07-.08.07.07,0,0,0-.07-.07h-.2l.07-.07h.35a.08.08,0,0,0,.07-.08.07.07,0,0,0-.07-.07H33l.18-.18a.07.07,0,0,0,0-.1.08.08,0,0,0-.11,0l-.18.17v-.19a.07.07,0,0,0-.07-.08h0a.08.08,0,0,0-.07.08v.34l-.07.07V49a.08.08,0,0,0-.08-.07h0a.07.07,0,0,0-.07.08v.34l-.27.27V49.2l.24-.25a.07.07,0,0,0-.1-.1l-.14.14v-.1l.24-.24a.08.08,0,0,0,0-.11.07.07,0,0,0-.1,0l-.14.14v-.25a.09.09,0,0,0-.08-.08.08.08,0,0,0-.07.08v.25L32,48.54a.08.08,0,0,0-.11,0,.09.09,0,0,0,0,.11l.24.24V49L32,48.85a.08.08,0,0,0-.11,0,.08.08,0,0,0,0,.1l.24.25v.38l-.27-.27V49a.07.07,0,0,0-.07-.08h0a.08.08,0,0,0-.08.07v.2l-.07-.07v-.34a.08.08,0,0,0-.07-.08.08.08,0,0,0-.08.08v.19l-.17-.17a.08.08,0,0,0-.11,0,.07.07,0,0,0,0,.1l.18.18h-.2a.07.07,0,0,0-.07.07.08.08,0,0,0,.07.08h.35l.07.07h-.2a.07.07,0,0,0-.07.07.08.08,0,0,0,.07.08h.34l.28.27h-.39l-.24-.24a.07.07,0,0,0-.1,0,.08.08,0,0,0,0,.1l.14.14h-.1l-.24-.24a.07.07,0,1,0-.1.1l.13.14h-.25a.08.08,0,0,0-.07.08.07.07,0,0,0,.07.07h.25L31,50a.08.08,0,0,0,0,.11.07.07,0,0,0,.1,0l.24-.25h.1l-.14.14a.09.09,0,0,0,0,.11l.05,0,0,0,.24-.25H32l-.28.27h-.34a.07.07,0,0,0-.07.08.07.07,0,0,0,.07.07h.2l-.07.07h-.35a.07.07,0,0,0-.07.07.07.07,0,0,0,.07.08h.2l-.18.18a.07.07,0,0,0,0,.1.08.08,0,0,0,.11,0l.17-.18v.2a.09.09,0,0,0,.08.08h0a.08.08,0,0,0,.07-.08v-.34l.07-.07v.19a.09.09,0,0,0,.08.08h0a.08.08,0,0,0,.07-.08v-.34l.27-.27v.38l-.24.24a.09.09,0,0,0,0,.11.08.08,0,0,0,.11,0l.14-.14v.1l-.24.24a.09.09,0,0,0,0,.11A.08.08,0,0,0,32,51l.14-.14v.25a.07.07,0,0,0,.07.07.08.08,0,0,0,.08-.07v-.25l.14.14a.07.07,0,0,0,.1,0,.08.08,0,0,0,0-.11l-.24-.24v-.1l.14.14a.07.07,0,0,0,.1,0,.08.08,0,0,0,0-.11l-.24-.24v-.38l.27.27v.34a.08.08,0,0,0,.07.08h0s.07,0,.08-.08v-.19l.07.07v.34a.08.08,0,0,0,.07.08h0a.08.08,0,0,0,.07-.08v-.2l.18.18a.08.08,0,0,0,.11,0,.07.07,0,0,0,0-.1L33,50.47h.2a.07.07,0,0,0,.07-.08.07.07,0,0,0-.07-.07h-.35l-.07-.07H33a.07.07,0,0,0,.07-.07A.07.07,0,0,0,33,50.1h-.35l-.27-.27h.39l.24.25a.07.07,0,0,0,.1,0,.08.08,0,0,0,0-.11L33,49.83h.11l.24.25,0,0,.05,0a.08.08,0,0,0,0-.11l-.14-.14h.25a.07.07,0,0,0,.08-.07A.08.08,0,0,0,33.53,49.68Z"/><path class="cls-16" d="M51.35,37.05a.87.87,0,1,1-1.73,0c0-.48.86-1.53.86-1.53S51.35,36.57,51.35,37.05Z"/><rect class="cls-18" x="20.36" y="13.83" width="17.13" height="28.56" rx="3.53"/><path class="cls-6" d="M34.61,13.83H23.24a2.94,2.94,0,0,0-2.88,3v.93H37.49v-.93A2.94,2.94,0,0,0,34.61,13.83Z"/><path class="cls-6" d="M20.36,38v1.44a2.94,2.94,0,0,0,2.88,3H34.61a2.94,2.94,0,0,0,2.88-3V38Z"/><circle class="cls-7" cx="28.93" cy="39.89" r="1.39"/><text/><path class="cls-7" d="M29,30.21a.78.78,0,1,0,.73.83A.78.78,0,0,0,29,30.21Z"/><path class="cls-7" d="M27.55,29.46a.28.28,0,0,0,0,.38.26.26,0,0,0,.19.1.3.3,0,0,0,.18-.06,1.76,1.76,0,0,1,2.14,0,.26.26,0,0,0,.37,0,.27.27,0,0,0,0-.38A2.28,2.28,0,0,0,27.55,29.46Z"/><path class="cls-7" d="M31.21,28.35a4.84,4.84,0,0,0-4.53-.09.27.27,0,0,0-.12.36.28.28,0,0,0,.22.15.32.32,0,0,0,.14,0,4.27,4.27,0,0,1,4,.07.27.27,0,0,0,.37-.09A.29.29,0,0,0,31.21,28.35Z"/><path class="cls-7" d="M32.11,27.2a7.49,7.49,0,0,0-6.36-.15.26.26,0,0,0-.14.35.26.26,0,0,0,.23.16.32.32,0,0,0,.13,0,6.92,6.92,0,0,1,5.9.14.27.27,0,0,0,.36-.12A.27.27,0,0,0,32.11,27.2Z"/><path class="cls-16" d="M17.74,24.93A1.15,1.15,0,1,0,16.24,26a.8.8,0,0,0-.36.23.08.08,0,0,0,.07.13h1.29a.08.08,0,0,0,.07-.13A.74.74,0,0,0,17,26,1.14,1.14,0,0,0,17.74,24.93Zm-.84.31a.39.39,0,0,1-.3.13.4.4,0,0,1-.31-.13.44.44,0,0,1,0-.62.43.43,0,0,1,.61,0A.44.44,0,0,1,16.9,25.24Z"/><path class="cls-7" d="M52.42,28a.47.47,0,0,1-.68.06.53.53,0,1,1,.68-.06Z"/><path class="cls-7" d="M54.57,28a.47.47,0,0,1-.68.06.53.53,0,1,1,.68-.06Z"/><polyline class="cls-19" points="52.18 27.19 52.18 25.54 54.32 25.54 54.32 27.29"/><path class="cls-16" d="M42.76,25.51h-.4v-2c0-.16-.18-.16-.18,0v2H39.32v-2c0-.16-.17-.16-.17,0v2h-.4a.4.4,0,0,0-.39.39.39.39,0,0,0,.39.39h4a.39.39,0,0,0,.39-.39A.4.4,0,0,0,42.76,25.51Z"/></g></g></svg>